<svg height="512" viewBox="0 0 512 512" width="512" xmlns="http://www.w3.org/2000/svg"><g id="Blue"><path d="m464.971 95.029-64-64a24 24 0 0 0 -33.942 33.942l23.03 23.029h-6.059a152.014 152.014 0 0 0 -128 70.1 152.014 152.014 0 0 0 -128-70.1h-6.059l23.03-23.029a24 24 0 0 0 -33.942-33.942l-64 64a24 24 0 0 0 0 33.942l64 64a24 24 0 0 0 33.942-33.942l-23.03-23.029h6.059a104.118 104.118 0 0 1 104 104v224a24 24 0 0 0 48 0v-224a104.118 104.118 0 0 1 104-104h6.059l-23.03 23.029a24 24 0 0 0 33.942 33.942l64-64a24 24 0 0 0 0-33.942z" fill="#6498f6"/><path d="m255.985 496.008a32.039 32.039 0 0 1 -32-32v-224.008a96.156 96.156 0 0 0 -81.685-94.938l8.307 8.307a32 32 0 0 1 -45.258 45.257l-64-64a32.039 32.039 0 0 1 0-45.256l64-64a32 32 0 0 1 45.251 45.251l-9.87 9.879a159.349 159.349 0 0 1 115.255 63.581 159.347 159.347 0 0 1 115.255-63.581l-9.876-9.876a32 32 0 1 1 45.258-45.256l64.005 64a32.037 32.037 0 0 1 0 45.256l-64 64a32 32 0 0 1 -45.259-45.257l8.307-8.307a96.156 96.156 0 0 0 -81.688 94.94v224.007a32.039 32.039 0 0 1 -32.002 32.001zm-134.068-368.008h6.059a112.133 112.133 0 0 1 112.008 112v224.007a16 16 0 0 0 32 0v-224.007a112.132 112.132 0 0 1 112.009-112h6.059a8 8 0 0 1 5.658 13.657l-23.031 23.03a16 16 0 0 0 22.63 22.628l64-64a16.019 16.019 0 0 0 0-22.629l-64-64a16 16 0 1 0 -22.629 22.629l23.031 23.03a8 8 0 0 1 -5.659 13.655h-6.059a143.609 143.609 0 0 0 -121.276 66.426 8 8 0 0 1 -13.464 0 143.611 143.611 0 0 0 -121.277-66.426h-6.059a8 8 0 0 1 -5.658-13.657l23.031-23.03a16 16 0 1 0 -22.629-22.629l-64 64a16.019 16.019 0 0 0 0 22.629l64.005 64a16 16 0 1 0 22.628-22.629l-23.031-23.03a8 8 0 0 1 5.654-13.654z" fill="#0444b7"/></g></svg>