<svg xmlns="http://www.w3.org/2000/svg" id="Layer_1" x="0" y="0" version="1.1" viewBox="0 0 120 120" xml:space="preserve"><style>.st3,.st4{fill:none;stroke:#212121;stroke-width:1.5}.st4{fill:#f5f5f5;stroke-linecap:round;stroke-linejoin:round}.st5{fill:#c1c1c1}.st6{fill:none;stroke:#e91e63;stroke-width:2;stroke-linecap:square}.st7{fill:#f0f0f0}.st8{fill:#e91e63}.st11{fill:none;stroke:#212121;stroke-width:2;stroke-linecap:round;stroke-linejoin:round}.st13{fill:#212121}.st14{fill:#9c80ba;stroke:#212121;stroke-width:1.5}</style><g id="Job_Scheduler"><circle id="back_x5F_circle_47_" cx="60" cy="60" r="50" fill="#f0f0f0" stroke="#777" stroke-dasharray="1,4" stroke-linecap="square" stroke-width="2"/><g id="pic_33_"><path fill="#29b6f6" stroke="#212121" stroke-width="1.5" d="M80 47H6V34c0-2.8 2.3-5 5-5h64c2.8 0 5 2.3 5 5v13z"/><path fill="#039be5" d="M6 38h74v9H6z"/><path d="M80 47H6V34c0-2.8 2.3-5 5-5h64c2.8 0 5 2.3 5 5v13z" class="st3"/><path d="M80 47H6v39c0 2.8 2.3 5 5 5h64c2.8 0 5-2.3 5-5V47z" class="st4"/><path d="M15 53h8v8h-8zM15 65h8v8h-8zM15 77h8v8h-8zM27 53h8v8h-8zM27 65h8v8h-8zM27 77h8v8h-8zM39 53h8v8h-8zM39 65h8v8h-8zM39 77h8v8h-8zM51 53h8v8h-8zM51 65h8v8h-8zM51 77h8v8h-8zM63 53h8v8h-8zM63 65h8v8h-8zM63 77h8v8h-8z" class="st5"/><path d="M63 65H47l-4-8" class="st6"/><circle cx="43" cy="57" r="3" class="st7"/><path d="M43 55c1.1 0 2 .9 2 2s-.9 2-2 2-2-.9-2-2 .9-2 2-2m0-2c-2.2 0-4 1.8-4 4s1.8 4 4 4 4-1.8 4-4-1.8-4-4-4z" class="st8"/><path d="M31 69h32" class="st6"/><circle cx="31" cy="69" r="3" class="st7"/><path d="M31 67c1.1 0 2 .9 2 2s-.9 2-2 2-2-.9-2-2 .9-2 2-2m0-2c-2.2 0-4 1.8-4 4s1.8 4 4 4 4-1.8 4-4-1.8-4-4-4z" class="st8"/><g><path d="M43 81l4.1-8h15.4" class="st6"/></g><g><circle cx="43" cy="81" r="3" class="st7"/><path d="M43 79c1.1 0 2 .9 2 2s-.9 2-2 2-2-.9-2-2 .9-2 2-2m0-2c-2.2 0-4 1.8-4 4s1.8 4 4 4 4-1.8 4-4-1.8-4-4-4z" class="st8"/></g><g><circle cx="80" cy="63" r="22" fill="#f5f5f5" stroke="#212121" stroke-width="1.5"/><path fill="#fbc02d" d="M80 63V44c5 0 9.9 2 13.4 5.6C97 53.1 99 58 99 63H80z"/><circle cx="80" cy="63" r="22" class="st3"/><path d="M80 63.1V46M80 63h14" class="st11"/><circle cx="80" cy="63" r="4" fill="#ef5350" stroke="#212121" stroke-linecap="round" stroke-linejoin="round" stroke-width="1.5"/><circle cx="63" cy="63" r="1.5" class="st13"/><circle cx="80" cy="80" r="1.5" class="st13"/><circle cx="68" cy="75" r="1.5" class="st13"/><circle cx="92" cy="75" r="1.5" class="st13"/><circle cx="68" cy="51" r="1.5" class="st13"/><circle cx="92" cy="51" r="1.5" class="st13"/></g><path id="gear_x5F_big_4_" d="M110.7 27.8c0-.1 0-.3.1-.4l2.2-1.8c.1-.1.2-.3.1-.4l-1.2-2.5c-.1-.1-.2-.2-.4-.2l-2.8.5c-.1 0-.3 0-.4-.2l-.5-.6c-.1-.1-.1-.3-.1-.4l.8-2.7c0-.1 0-.3-.1-.4l-2.4-1.5c-.1-.1-.3 0-.4 0l-2.1 1.9c-.1.1-.3.1-.4.1l-.7-.2c-.1 0-.3-.2-.3-.3l-.8-2.8c0-.1-.2-.3-.3-.3h-2.8c-.1 0-.3.1-.3.3l-.7 2.7c0 .1-.1.3-.2.3h-.1c-.4.1-.9.2-.9.2-.1 0-.3 0-.4-.1l-2.1-1.9c-.1-.1-.3-.1-.4 0l-2.3 1.4c-.1.1-.2.3-.1.4l.9 2.7c0 .1 0 .3-.1.4l-.7.7c-.3.3-.5.3-.6.3l-2.8-.5c-.1 0-.3.1-.4.2l-1.1 2.4c-.1.1 0 .3.1.4l2.2 1.8c.1.1.2.3.1.4l-.2 1.2c0 .1-.1.3-.3.4l-2.6 1.1c-.1.1-.2.2-.2.4 0 0 .1 1.8.4 2.8h.3l2.8.3c.1 0 .3.1.3.3l.5 1.3c.1.1 0 .3 0 .4l-1.6 2.4c-.1.1-.1.3 0 .4l1.6 1.9c.1.1.3.1.4.1l2.5-1.2c.1-.1.3 0 .4 0l1.2.8c.1.1.2.2.2.4v2.7c0 .1.1.3.2.3l2.4.7c.1 0 .3 0 .4-.2l1.5-2.4c.1-.1.2-.2.4-.2h1.4c.1 0 .3.1.4.2l1.5 2.4c.1.1.2.2.4.2 0 0 .1 0 .2-.1.8-.2 2.1-.7 2.1-.7.1 0 .2-.2.2-.3l-.1-2.9c0-.1.1-.3.2-.4l1.1-.7c.1-.1.3-.1.4 0l2.5 1.2c.1.1.3 0 .4-.1l1.6-2c.1-.1.1-.3 0-.4l-1.6-2.4c-.1-.1-.1-.3 0-.4l.4-1.1c0-.1.2-.3.3-.3l2.8-.4c.1 0 .3-.1.3-.3l.3-2.6c0-.1-.1-.3-.2-.4l-2.6-1.1-.3-.3.1-.9zm-9.6 9.4c-3.9.9-7.8-1.5-8.8-5.4-.9-3.9 1.5-7.8 5.4-8.8 3.9-.9 7.8 1.5 8.8 5.4s-1.5 7.8-5.4 8.8z" class="st14"/><path id="gear_x5F_big_5_" d="M106.9 90.1c0-.1 0-.2.1-.3l1.6-1.3c.1-.1.1-.2.1-.3l-.9-1.8c0-.1-.2-.1-.3-.1l-2.1.3c-.1 0-.2 0-.3-.1l-.4-.4c-.1-.1-.1-.2-.1-.3l.6-2c0-.1 0-.2-.1-.3l-1.7-1.1h-.3l-1.5 1.4c-.1.1-.2.1-.3.1l-.5-.2c-.1 0-.2-.1-.2-.2l-.5-2c0-.1-.1-.2-.2-.2h-2c-.1 0-.2.1-.2.2l-.5 2c0 .1-.1.2-.1.2l-.6.2c-.1 0-.2 0-.3-.1l-1.6-1.4c-.1-.1-.2-.1-.3 0l-1.7 1c-.1.1-.1.2-.1.3l.6 1.9c0 .1 0 .2-.1.3l-.5.5c-.1.1-.2.1-.3.1l-2.2-.2c-.1 0-.2 0-.3.1l-.8 1.7c0 .1 0 .2.1.3l1.6 1.3c.1.1.1.2.1.3l-.1.9c0 .1-.1.2-.2.3l-2 .8c-.1 0-.2.2-.2.3 0 0 .1 1.3.3 2h.2l2 .2c.1 0 .2.1.2.2l.4.9v.3l-1.1 1.7c-.1.1-.1.2 0 .3l1.2 1.4c.1.1.2.1.3.1l1.8-.9h.3l.9.6c.1.1.2.2.2.3v2c0 .1.1.2.2.2l1.7.5c.1 0 .2 0 .3-.1l1.1-1.8c.1-.1.2-.2.3-.2h1c.1 0 .2.1.3.1l1.1 1.7c.1.1.2.1.3.1h.2c.6-.1 1.6-.5 1.6-.5.1 0 .2-.1.2-.2l-.1-2.1c0-.1.1-.2.2-.3l.8-.5c.1-.1.2-.1.3 0l1.8.9c.1 0 .2 0 .3-.1l1.2-1.4c.1-.1.1-.2 0-.3l-1.2-1.7c-.1-.1-.1-.2 0-.3l.3-.8c0-.1.1-.2.2-.2l2-.3c.1 0 .2-.1.2-.2l.2-1.9c0-.1-.1-.2-.2-.3l-1.9-.8c-.1 0-.2-.2-.2-.3l-.2-.5zm-7 6.8c-2.8.7-5.7-1.1-6.3-3.9-.7-2.8 1.1-5.7 3.9-6.3 2.8-.7 5.7 1.1 6.3 3.9.7 2.8-1 5.6-3.9 6.3z" class="st14"/><circle cx="64" cy="38" r="4" class="st4"/><circle cx="22" cy="38" r="4" fill="#f0f0f0" stroke="#212121" stroke-linecap="round" stroke-linejoin="round" stroke-width="1.5"/></g></g></svg>