<?xml version="1.0" encoding="UTF-8"?>
<svg xmlns="http://www.w3.org/2000/svg" id="Layer_3" data-name="Layer 3" viewBox="0 0 64 64" width="512" height="512"><path d="M39.608,22.593l-1.23-5.47A23.23,23.23,0,0,1,32,18a23.23,23.23,0,0,1-6.378-.877l-1.23,5.47A19.954,19.954,0,0,0,32,24,19.954,19.954,0,0,0,39.608,22.593Z"/><path d="M59.73,38.771,42.963,28.392,45.976,41.78A1.022,1.022,0,0,1,46,42c0,4.486-6.149,8-14,8s-14-3.514-14-8a1.022,1.022,0,0,1,.024-.22l3.013-13.388L4.27,38.771a2.68,2.68,0,0,0-.095,4.5L28.907,60.05a5.6,5.6,0,0,0,6.186,0L59.825,43.268a2.68,2.68,0,0,0-.1-4.5Z"/><path d="M37.937,15.166,35.375,3.78A.993.993,0,0,0,34.4,3H29.6a.993.993,0,0,0-.975.78L26.063,15.166A22.5,22.5,0,0,0,37.937,15.166Z"/><path d="M41.222,29.764l-1.169-5.193A22.251,22.251,0,0,1,32,26a22.251,22.251,0,0,1-8.053-1.429l-1.169,5.193A18.325,18.325,0,0,0,32,32,18.325,18.325,0,0,0,41.222,29.764Z"/><path d="M20.743,38.807,20,42.1c.114,3.208,5.562,5.9,12,5.9s11.884-2.689,12-5.9l-.741-3.3C40.669,40.8,36.556,42,32,42S23.331,40.8,20.743,38.807Z"/><path d="M42.758,36.591l-1.075-4.778A20.712,20.712,0,0,1,32,34a20.712,20.712,0,0,1-9.683-2.187l-1.075,4.778C23.3,38.674,27.439,40,32,40S40.7,38.674,42.758,36.591Z"/></svg>
